<svg width="525" height="94" viewBox="0 0 525 94" fill="none" xmlns="http://www.w3.org/2000/svg">
<path d="M12.375 81.4375C4.66667 74.0625 0.8125 62.6667 0.8125 47.25C0.8125 31.7917 4.66667 20.375 12.375 13C20.125 5.58333 31.7292 1.875 47.1875 1.875H61.125C70.5833 1.875 78.9375 4.33333 86.1875 9.25C93.4792 14.1667 97.125 20.8958 97.125 29.4375C97.125 31.8958 96.3958 33.6667 94.9375 34.75C93.4792 35.7917 92.0625 36.3125 90.6875 36.3125H83.25C79.4167 36.3125 76.4375 34.0208 74.3125 29.4375C71.2292 22.8542 66.1042 19.5625 58.9375 19.5625H47.8125C38.6875 19.5625 32.5 21.5208 29.25 25.4375C26 29.3542 24.375 36.6042 24.375 47.1875C24.375 57.7708 26 65.0417 29.25 69C32.5 72.9167 38.6875 74.875 47.8125 74.875H60.25C67.4167 74.875 72.5208 71.5833 75.5625 65C77.6875 60.375 80.6875 58.0625 84.5625 58.0625H92C93.9583 58.0625 95.5 58.7917 96.625 60.25C97.7917 61.7083 98.375 63.2917 98.375 65C98.375 73.5417 94.75 80.2708 87.5 85.1875C80.25 90.0625 71.8958 92.5 62.4375 92.5H47.1875C31.7292 92.5 20.125 88.8125 12.375 81.4375Z" fill="#90ACDD"/>
<path d="M103.188 86.25L118.875 26.75C123.125 10.5417 136.958 2.41667 160.375 2.375H194.062C195.604 2.375 196.875 2.95833 197.875 4.125C198.917 5.29167 199.438 6.64583 199.438 8.1875V86.25C199.438 87.875 198.854 89.25 197.688 90.375C196.521 91.4583 195.125 92 193.5 92H181.75C180.042 92 178.625 91.4583 177.5 90.375C176.417 89.25 175.875 87.8333 175.875 86.125V70.375H131.438L127.25 86.125C126.833 87.8333 125.896 89.25 124.438 90.375C122.979 91.4583 121.438 92 119.812 92H107.5C105.875 92 104.708 91.5417 104 90.625C103.292 89.6667 102.938 88.8333 102.938 88.125C102.979 87.4167 103.062 86.7917 103.188 86.25ZM136.062 52.6875H175.875V20.0625H158.062C154.062 20.0625 150.562 21.2083 147.562 23.5C144.604 25.75 142.604 28.7917 141.562 32.625L136.062 52.6875Z" fill="#832969"/>
<path d="M217.312 86.125V8.3125C217.312 6.6875 217.875 5.29167 219 4.125C220.125 2.95833 221.5 2.375 223.125 2.375H241.5C242.958 2.375 244.5 2.95833 246.125 4.125C247.75 5.29167 249.083 6.6875 250.125 8.3125L287.875 66.375V8.1875C287.875 6.5625 288.438 5.1875 289.562 4.0625C290.729 2.9375 292.125 2.375 293.75 2.375L473.75 0.5C475.375 0.5 522.938 46.0625 524.062 47.1875C525.229 48.3125 310.375 6.60417 310.375 8.3125V86.125C310.375 87.75 525.229 46.0208 524.062 47.1875C522.938 48.3125 531.5 85.625 473.75 93.9375L283.75 92C282.125 92 280.458 91.4375 278.75 90.3125C277.042 89.1458 275.688 87.75 274.688 86.125L240.125 32.5V86.125C240.125 87.75 239.542 89.1458 238.375 90.3125C237.25 91.4375 235.875 92 234.25 92H223.25C221.625 92 220.229 91.4375 219.062 90.3125C217.896 89.1458 217.312 87.75 217.312 86.125Z" fill="#832969"/>

<path d="M321.062 7.625C320.812 7.125 320.688 6.58333 320.688 6C320.688 5.375 321.062 4.625 321.812 3.75C322.604 2.83333 323.708 2.375 325.125 2.375H338.812C342.062 2.375 344.542 4.35417 346.25 8.3125L370.438 62.1875L394.625 8.3125C396.333 4.39583 398.812 2.41667 402.062 2.375H415.75C417.208 2.375 418.312 2.83333 419.062 3.75C419.812 4.625 420.188 5.375 420.188 6C420.188 6.58333 420.083 7.125 419.875 7.625L383.875 85.625C381.917 89.875 378.938 92 374.938 92H365.938C361.938 92 358.958 89.875 357 85.625L321.062 7.625Z" fill="#90ACDD"/>
<path d="M511.25 82.75C502.75 90.2083 490.25 93.9375 473.75 93.9375C457.292 93.9375 444.792 90.2083 436.25 82.75C427.708 75.25 423.438 63.3958 423.438 47.1875C423.438 30.9792 427.708 19.1458 436.25 11.6875C444.792 4.22917 457.292 0.5 473.75 0.5C490.25 0.5 502.75 4.22917 511.25 11.6875C519.792 19.1458 524.062 30.9792 524.062 47.1875C524.062 63.3958 519.792 75.25 511.25 82.75ZM494.188 24.875C489.979 19.875 483.167 17.375 473.75 17.375C464.375 17.375 457.562 19.875 453.312 24.875C449.104 29.875 447 37.3333 447 47.25C447 57.125 449.104 64.5625 453.312 69.5625C457.562 74.5208 464.375 77 473.75 77C483.167 77 489.979 74.5208 494.188 69.5625C498.396 64.5625 500.5 57.125 500.5 47.25C500.5 37.3333 498.396 29.875 494.188 24.875Z" fill="#90ACDD"/>
<path d="M121 86.375L136.688 26.875C140.938 10.6667 154.771 2.54167 178.188 2.5H211.875C213.417 2.5 214.688 3.08333 215.688 4.25C216.729 5.41667 217.25 6.77083 217.25 8.3125V86.375C217.25 88 216.667 89.375 215.5 90.5C214.333 91.5833 212.938 92.125 211.312 92.125H199.562C197.854 92.125 196.438 91.5833 195.312 90.5C194.229 89.375 193.688 87.9583 193.688 86.25V70.5H149.25L145.062 86.25C144.646 87.9583 143.708 89.375 142.25 90.5C140.792 91.5833 139.25 92.125 137.625 92.125H125.312C123.688 92.125 122.521 91.6667 121.812 90.75C121.104 89.7917 120.75 88.9583 120.75 88.25C120.792 87.5417 120.875 86.9167 121 86.375ZM153.875 52.8125H193.688V20.1875H175.875C171.875 20.1875 168.375 21.3333 165.375 23.625C162.417 25.875 160.417 28.9167 159.375 32.75L153.875 52.8125Z" fill="#90ACDD"/>
</svg>
